<?xml version="1.0" encoding="utf-8" ?>
<svg xmlns="http://www.w3.org/2000/svg" xmlns:xlink="http://www.w3.org/1999/xlink" width="593" height="165">
	<path transform="translate(0 0.211426)" d="M125.69508 107.78482L105.96365 107.78482L105.96365 44.49897L71.244591 104.59873C70.391083 106.13069 69.186012 107.29051 67.6297 108.08141C66.123383 108.87151 64.491997 109.26775 62.734741 109.26775C61.027321 109.26775 59.420692 108.87151 57.914776 108.08141C56.458771 107.29051 55.304092 106.13069 54.450104 104.59873L19.581059 44.49897L19.581059 107.78482L0 107.78482L0 9.7434969C0 7.5203071 0.65269846 5.5441914 1.9580954 3.8150539C3.3137031 2.0859568 5.0709639 0.92494673 7.2298937 0.33210403C8.2842617 0.085085556 9.3386288 0.010979209 10.392997 0.10978499C11.447365 0.15919189 12.451497 0.3815029 13.405476 0.77673405C14.409609 1.1225663 15.313353 1.6412786 16.116707 2.3329351C16.919981 2.9752169 17.59779 3.7656791 18.150131 4.7043462L62.734741 80.95945L107.31879 4.7043462C108.47379 2.8269882 110.05558 1.49309 112.06336 0.70262772C114.12259 -0.087826572 116.25576 -0.21133982 118.46529 0.33210403C120.57434 0.92494673 122.30643 2.0859568 123.66157 3.8150539C125.01751 5.5441914 125.69508 7.5203071 125.69508 9.7434969L125.69508 107.78482Z"/>
	<path transform="translate(143.505 1.72946)" d="M89.244293 62.841442L27.413721 62.841442L27.413721 43.425819L89.244293 43.425819L89.244293 62.841442ZM98.055878 106.2676L27.413721 106.2676C24.70265 106.2676 21.740004 105.7982 18.526587 104.85941C15.313972 103.92063 12.326408 102.38947 9.565505 100.26514C6.853631 98.090981 4.5693555 95.299538 2.7118742 91.890808C0.90422601 88.432243 0 84.208504 0 79.218781L0 9.7078342C0 8.3739204 0.25157577 7.1141124 0.75392354 5.9284916C1.2554675 4.7427897 1.933838 3.705301 2.7866235 2.816009C3.6908495 1.9267489 4.745378 1.2350843 5.9502091 0.74103129C7.1550398 0.2470265 8.4603405 0 9.8661108 0L98.055878 0L98.055878 19.267393L19.581114 19.267393L19.581114 79.218781C19.581114 81.738556 20.259485 83.665161 21.614618 84.999397C22.970556 86.332832 24.953423 86.999947 27.564827 86.999947L98.055878 86.999947L98.055878 106.2676Z"/>
	<path transform="translate(257.865 1.72946)" d="M105.96323 19.267393L62.809547 19.267393L62.809547 106.2676L43.228432 106.2676L43.228432 19.267393L0 19.267393L0 0L105.96323 0L105.96323 19.267393Z"/>
	<path fill="#6F7489" transform="translate(1.98428 134.916)" d="M5.2215877 28.729004L0 28.729004L0 0.39096257L5.2215877 0.39096257L5.2215877 28.729004ZM157.73782 26.535553C157.73782 26.903673 157.66469 27.246876 157.51759 27.562754C157.38338 27.87863 157.19609 28.155926 156.95497 28.393034C156.72751 28.617281 156.45262 28.794912 156.13112 28.926727C155.80962 29.057739 155.46883 29.123648 155.10713 29.123648C154.78563 29.123648 154.4577 29.064974 154.12334 28.946018C153.80183 28.827063 153.51408 28.636572 153.25929 28.37294L134.18053 8.7701235L134.18053 28.729004L128.95934 28.729004L128.95934 2.584414C128.95934 2.0579534 129.10641 1.5829334 129.40059 1.161765C129.70844 0.72693276 130.09665 0.40382266 130.56604 0.19323848C131.06116 -0.0044856011 131.56993 -0.050299719 132.09238 0.054992378C132.61401 0.14742437 133.06331 0.38372877 133.43787 0.76631683L152.51663 20.349842L152.51663 0.39096257L157.73782 0.39096257L157.73782 26.535553ZM310.19437 16.871988C310.19437 18.597654 309.88651 20.185072 309.27084 21.634245C308.66803 23.083418 307.8313 24.334867 306.75989 25.388592C305.6893 26.43026 304.41776 27.246876 302.94446 27.839245C301.47198 28.432417 299.8717 28.729004 298.14444 28.729004L284.04575 28.729004C283.6712 28.729004 283.32318 28.663095 283.00168 28.531279C282.68097 28.399464 282.39966 28.221029 282.15851 27.997585C281.93106 27.760477 281.75021 27.483984 281.616 27.167305C281.48175 26.851429 281.41504 26.509027 281.41504 26.140104L281.41504 2.979862C281.41504 2.6237979 281.48175 2.2878277 281.616 1.9719515C281.75021 1.6552714 281.93106 1.3787793 282.15851 1.1416711C282.39966 0.90456295 282.68097 0.71969897 283.00168 0.58868665C283.32318 0.45687059 283.6712 0.39096257 284.04575 0.39096257L298.14444 0.39096257C299.8717 0.39096257 301.47198 0.68674493 302.94446 1.2799172C304.41776 1.8730894 305.6893 2.696136 306.75989 3.7506645C307.8313 4.7907252 308.66803 6.0421743 309.27084 7.5050111C309.88651 8.9541836 310.19437 10.535172 310.19437 12.247977L310.19437 16.871988ZM304.97235 12.247977C304.97235 11.246497 304.80518 10.331018 304.47079 9.5007381C304.14929 8.6712618 303.68713 7.9655633 303.08511 7.386055C302.4823 6.7936864 301.75974 6.3387604 300.9158 6.0228839C300.08551 5.6933436 299.16199 5.5293775 298.14444 5.5293775L286.63705 5.5293775L286.63705 23.59059L298.14444 23.59059C299.16199 23.59059 300.08551 23.432249 300.9158 23.116373C301.75974 22.786833 302.4823 22.33271 303.08511 21.753201C303.68713 21.160028 304.14929 20.455135 304.47079 19.638517C304.80518 18.809042 304.97235 17.88633 304.97235 16.871988L304.97235 12.247977ZM438.20944 28.729004L432.98825 28.729004L432.98825 0.39096257L438.20944 0.39096257L438.20944 28.729004ZM590.2038 28.729004L584.98022 28.729004L584.98022 21.772491L566.6264 21.772491L566.6264 28.729004L561.40283 28.729004L561.40283 14.559581C561.40283 12.491516 561.7677 10.588221 562.48785 8.8488913C563.21204 7.1095629 564.21515 5.6145759 565.50037 4.3631268C566.78558 3.1116781 568.30707 2.1367216 570.06085 1.4382572C571.81384 0.73979288 573.73163 0.39096257 575.80371 0.39096257L587.57153 0.39096257C587.9364 0.39096257 588.27643 0.45687059 588.59467 0.58868665C588.91858 0.71969897 589.20154 0.90456295 589.44348 1.1416711C589.67975 1.3787793 589.87024 1.6552714 590.00366 1.9719515C590.13708 2.2878277 590.2038 2.6237979 590.2038 2.979862L590.2038 28.729004ZM566.6264 16.63488L584.98022 16.63488L584.98022 5.5293775L575.80371 5.5293775C575.64374 5.5293775 575.30457 5.5550976 574.78052 5.6081457C574.27094 5.6475296 573.67456 5.7592521 572.99133 5.9441156C572.32263 6.1281762 571.61292 6.4110985 570.86304 6.7936864C570.1123 7.1754708 569.42346 7.7027349 568.79578 8.3746758C568.16882 9.0466156 567.64398 9.8889523 567.2276 10.904097C566.82654 11.905578 566.6264 13.124072 566.6264 14.559581L566.6264 16.63488Z"/>
	<path transform="translate(502.775 32.1133)" d="M89.971695 75.883774L19.284529 75.883774L9.7166119 75.883774C8.3285246 75.883774 7.0433178 75.636215 5.860992 75.142708C4.6730399 74.648399 3.6345866 73.982086 2.7456319 73.142159C1.9016877 72.253204 1.2337662 71.216354 0.74025971 70.030815C0.24675323 68.845276 0 67.561676 0 66.178413L0 0L20.544819 0L20.544819 56.62175L89.971695 56.62175L89.971695 75.883774Z"/>
	<path fill="#CD4800" transform="translate(502.756 32.1125)" d="M6.2467952 75.354897C7.5167303 75.707748 8.8847237 75.883774 10.359617 75.883774L20.564913 75.883774L20.564913 62.125069L20.564913 0L0 0L0 68.952179C0 69.939995 0.26282835 70.857079 0.79170012 71.703438C1.3165531 72.550591 2.0310926 73.290855 2.9256735 73.926628C3.8765173 74.525421 4.9824862 75.002052 6.2467952 75.354897Z"/>
	<path transform="translate(502.756 1.7589)" d="M0 0L20.564913 0L20.564913 20.235733L0 20.235733L0 0Z"/>
	<path fill="#CD4800" transform="translate(379.364 1.7589)" d="M0 106.2679L19.581114 106.2679L19.581114 80.182785L88.415619 80.182785L88.415619 106.2679L107.99673 106.2679L107.99673 53.134048C107.99673 45.377476 106.6408 38.23827 103.92973 31.717314C101.21866 25.195795 97.453056 19.588469 92.632927 14.895335C87.812805 10.201638 82.114975 6.5460739 75.537033 3.9275961C68.959892 1.3091987 61.780739 0 53.998768 0L9.8661108 0C8.5101728 0 7.2297893 0.2470265 6.0249581 0.74103129C4.8201275 1.2350843 3.765599 1.9267409 2.8621767 2.8160009C1.9579507 3.705277 1.2554675 4.7427659 0.75311977 5.9283872C0.25157577 7.1141686 0 8.3738155 0 9.7078905L0 106.2679ZM88.415619 60.915134L19.581114 60.915134L19.581114 19.267288L53.998768 19.267288C54.600784 19.267288 55.881168 19.36639 57.839119 19.563713C59.747234 19.711926 61.981678 20.131807 64.541641 20.823923C67.052574 21.515474 69.713013 22.577318 72.525352 24.010014C75.336899 25.442709 77.922577 27.419228 80.28241 29.938601C82.642235 32.458458 84.600189 35.620274 86.156258 39.424053C87.662498 43.178802 88.415619 47.748798 88.415619 53.134048L88.415619 60.915134Z"/>
</svg>
