<?xml version="1.0" encoding="UTF-8"?>
<svg width="123px" height="34px" viewBox="0 0 123 34" version="1.1" xmlns="http://www.w3.org/2000/svg" xmlns:xlink="http://www.w3.org/1999/xlink">
    <title>METAL Logo - Dark BG 2</title>
    <g id="Final" stroke="none" stroke-width="1" fill="none" fill-rule="evenodd">
        <g id="2.5-Metal-India---Requisition-Details---Kanban" transform="translate(-16, -156)" fill-rule="nonzero">
            <g id="METAL-Logo---Dark-BG" transform="translate(16, 156)">
                <path d="M26.0587348,22.3456341 L21.9680752,22.3456341 L21.9680752,9.22539625 L14.7702206,21.6851032 C14.5932736,22.0027046 14.3434416,22.2431552 14.0207912,22.4071215 C13.7085054,22.5709212 13.3702915,22.653071 13.005983,22.653071 C12.6520057,22.653071 12.3189242,22.5709212 12.0067216,22.4071215 C11.704867,22.2431552 11.4654662,22.0027046 11.2884359,21.6851032 L4.05948768,9.22539625 L4.05948768,22.3456341 L0,22.3456341 L0,2.01999321 C0,1.5590879 0.135315534,1.1494054 0.405946602,0.79092571 C0.686987197,0.432454355 1.05129735,0.191757137 1.4988804,0.068850721 C1.71746883,0.0176395752 1.93605725,0.00227606486 2.15464568,0.0227601899 C2.3732341,0.0330030856 2.581408,0.0790919503 2.77918404,0.161030117 C2.98735794,0.232727054 3.17471945,0.340264961 3.34126856,0.483657169 C3.50780102,0.616813146 3.64832215,0.780689479 3.76283196,0.975291167 L13.005983,16.7842767 L22.2490175,0.975291167 C22.4884683,0.586082793 22.8164009,0.309542939 23.2326487,0.145668273 C23.659561,-0.0182080602 24.1018035,-0.0438144662 24.559876,0.068850721 C24.9971195,0.191757137 25.3562124,0.432454355 25.6371547,0.79092571 C25.918097,1.1494054 26.0587348,1.5590879 26.0587348,2.01999321 L26.0587348,22.3456341 Z" id="Path" fill="#FFFFFF"></path>
                <path d="M48.2528418,13.342817 L35.4343086,13.342817 L35.4343086,9.3176273 L48.2528418,9.3176273 L48.2528418,13.342817 Z M50.0796332,22.3458008 L35.4343086,22.3458008 C34.8722574,22.3458008 34.2580503,22.2484874 33.5918538,22.0538607 C32.925824,21.8592341 32.3064512,21.5417993 31.7340688,21.1013898 C31.171851,20.650649 30.6982816,20.0719346 30.3131941,19.3652464 C29.9384377,18.6482271 29.7509762,17.7725736 29.7509762,16.7381195 L29.7509762,2.3273134 C29.7509762,2.05077022 29.8031322,1.78959054 29.9072775,1.54379104 C30.0112561,1.29797487 30.1518939,1.08288573 30.3286909,0.898520272 C30.5161524,0.71416148 30.7347741,0.570767606 30.9845561,0.468341982 C31.2343382,0.365926356 31.5049492,0.314713544 31.7963894,0.314713544 L50.0796332,0.314713544 L50.0796332,4.30917291 L33.8104756,4.30917291 L33.8104756,16.7381195 C33.8104756,17.2605122 33.9511134,17.6599301 34.2320556,17.9365399 C34.5131645,18.2129832 34.9242468,18.3512881 35.4656355,18.3512881 L50.0796332,18.3512881 L50.0796332,22.3458008 Z" id="Shape" fill="#FFFFFF"></path>
                <polygon id="Path" fill="#FFFFFF" points="75.427759 4.30917291 66.4812636 4.30917291 66.4812636 22.3458008 62.4217643 22.3458008 62.4217643 4.30917291 53.4597721 4.30917291 53.4597721 0.314713544 75.427759 0.314713544"></polygon>
                <path d="M1.49389809,33.8825973 L0.41137382,33.8825973 L0.41137382,28.0076376 L1.49389809,28.0076376 L1.49389809,33.8825973 Z M33.1131188,33.4278574 C33.1131188,33.504175 33.0979553,33.5753271 33.0674616,33.6408136 C33.0396339,33.7063002 33.0008086,33.7637884 32.9508189,33.8129449 C32.9036619,33.8594354 32.8466736,33.8962612 32.7800206,33.9235889 C32.7133676,33.95075 32.6427155,33.9644138 32.5677309,33.9644138 C32.5010779,33.9644138 32.4330919,33.9522496 32.3637728,33.927588 C32.2971198,33.9029264 32.2374654,33.8634346 32.1846429,33.8087791 L28.2292889,29.7447807 L28.2292889,33.8825973 L27.1468446,33.8825973 L27.1468446,28.4623775 C27.1468446,28.3532333 27.1773383,28.2547535 27.2383258,28.1674381 C27.302146,28.0772899 27.3826295,28.0103037 27.4799428,27.966646 C27.5825884,27.9256544 27.6880667,27.9161564 27.7963778,27.9379852 C27.9045222,27.957148 27.9976698,28.0061379 28.0753205,28.0854549 L32.0306746,32.1454542 L32.0306746,28.0076376 L33.1131188,28.0076376 L33.1131188,33.4278574 Z M64.7199588,31.4244356 C64.7199588,31.7821955 64.6561386,32.1112945 64.5284981,32.4117328 C64.4035238,32.7121711 64.2300595,32.9716178 64.0079384,33.1900729 C63.785984,33.4060285 63.5223715,33.5753271 63.2169343,33.6981352 C62.9116636,33.8211099 62.5798985,33.8825973 62.2218054,33.8825973 L59.2989059,33.8825973 C59.2212551,33.8825973 59.1491033,33.8689334 59.0824503,33.8416057 C59.015964,33.814278 58.9576426,33.7772856 58.9076529,33.7309618 C58.8604959,33.6818052 58.8230036,33.6244837 58.795176,33.5588305 C58.7673484,33.4933439 58.7535179,33.4223585 58.7535179,33.3458742 L58.7535179,28.5443607 C58.7535179,28.4705425 58.7673484,28.4008901 58.795176,28.3354036 C58.8230036,28.2697504 58.8604959,28.2124288 58.9076529,28.1632723 C58.9576426,28.1141157 59.015964,28.0757903 59.0824503,28.0486292 C59.1491033,28.0213014 59.2212551,28.0076376 59.2989059,28.0076376 L62.2218054,28.0076376 C62.5798985,28.0076376 62.9116636,28.0689583 63.2169343,28.1919331 C63.5223715,28.3149078 63.785984,28.4855394 64.0079384,28.7041612 C64.2300595,28.9197835 64.4035238,29.1792302 64.5284981,29.4825013 C64.6561386,29.7829395 64.7199588,30.1107055 64.7199588,30.4657992 L64.7199588,31.4244356 Z M63.6373479,30.4657992 C63.6373479,30.2581752 63.6026883,30.0683809 63.5333692,29.8962496 C63.4667163,29.7242849 63.3709026,29.5779816 63.2460949,29.4578397 C63.1211206,29.3350316 62.971318,29.2407176 62.796354,29.175231 C62.6242227,29.1069118 62.432762,29.0729187 62.2218054,29.0729187 L59.8361288,29.0729187 L59.8361288,32.8173161 L62.2218054,32.8173161 C62.432762,32.8173161 62.6242227,32.7844896 62.796354,32.719003 C62.971318,32.6506837 63.1211206,32.5565364 63.2460949,32.4363944 C63.3709026,32.3134197 63.4667163,32.167283 63.5333692,31.9979845 C63.6026883,31.8260198 63.6373479,31.6347258 63.6373479,31.4244356 L63.6373479,30.4657992 Z M91.2596731,33.8825973 L90.1772288,33.8825973 L90.1772288,28.0076376 L91.2596731,28.0076376 L91.2596731,33.8825973 Z M122.770699,33.8825973 L121.687755,33.8825973 L121.687755,32.4403936 L117.882704,32.4403936 L117.882704,33.8825973 L116.799759,33.8825973 L116.799759,30.9450341 C116.799759,30.5162889 116.875411,30.1217033 117.024713,29.7611107 C117.174849,29.4005181 117.382806,29.0905818 117.649252,28.8311351 C117.915697,28.5716884 118.231132,28.3695632 118.594724,28.2247596 C118.958149,28.0799561 119.355734,28.0076376 119.785313,28.0076376 L122.224978,28.0076376 C122.300629,28.0076376 122.371115,28.0213014 122.437101,28.0486292 C122.504254,28.0757903 122.562909,28.1141157 122.613065,28.1632723 C122.662055,28.2124288 122.701547,28.2697504 122.729208,28.3354036 C122.756869,28.4008901 122.770699,28.4705425 122.770699,28.5443607 L122.770699,33.8825973 Z M117.882704,31.3752791 L121.687755,31.3752791 L121.687755,29.0729187 L119.785313,29.0729187 C119.752153,29.0729187 119.681834,29.078251 119.57319,29.0892487 C119.467545,29.0974137 119.343903,29.1205756 119.202266,29.1589011 C119.063628,29.1970599 118.916491,29.2557145 118.761023,29.3350316 C118.605388,29.414182 118.462584,29.5234928 118.332445,29.6627975 C118.202471,29.8021023 118.09366,29.9767331 118.007345,30.1871898 C117.924195,30.3948138 117.882704,30.6474286 117.882704,30.9450341 L117.882704,31.3752791 Z" id="Shape" fill="#ADAAB8"></path>
                <path d="M122.887175,22.3458008 L108.23252,22.3458008 L106.248927,22.3458008 C105.961153,22.3458008 105.694708,22.294478 105.449591,22.1921657 C105.203308,22.0896867 104.988019,21.9515484 104.803557,21.7774175 C104.62876,21.5931221 104.490288,21.3781662 104.387976,21.1323834 C104.285664,20.8866005 104.234508,20.6204886 104.234508,20.3337141 L104.234508,6.61379945 L108.493799,6.61379945 L108.493799,18.3524545 L122.887175,18.3524545 L122.887175,22.3458008 Z" id="Path" fill="#FFFFFF"></path>
                <path d="M105.524243,22.23599 C105.787522,22.3091416 106.07113,22.3456341 106.376901,22.3456341 L108.492799,22.3456341 L108.492799,19.4932201 L108.492799,6.61363281 L104.229175,6.61363281 L104.229175,20.908596 C104.229175,21.1133873 104.283664,21.3035149 104.393308,21.4789788 C104.502119,21.6546094 104.650255,21.8080779 104.835717,21.9398842 C105.032844,22.0640253 105.26213,22.1628384 105.524243,22.23599 Z" id="Path" fill="#01FAC1"></path>
                <polygon id="Path" fill="#FFFFFF" points="108.492799 0.32081729 104.229175 0.32081729 104.229175 4.51603042 108.492799 4.51603042"></polygon>
                <path d="M78.6485973,22.3519662 L82.7080966,22.3519662 L82.7080966,16.9440772 L96.9786648,16.9440772 L96.9786648,22.3519662 L101.038164,22.3519662 L101.038164,11.3364126 C101.038164,9.72834292 100.757055,8.24826366 100.195004,6.89635806 C99.6329529,5.54433583 98.8522799,4.38184132 97.8529852,3.40887454 C96.8538572,2.43579112 95.6724332,1.67793015 94.3087134,1.13507501 C92.9451602,0.592236529 91.4567993,0.32081729 89.8434641,0.32081729 L80.6940104,0.32081729 C80.4129015,0.32081729 80.147456,0.372030102 79.897674,0.474445728 C79.647892,0.576871352 79.4292702,0.72026356 79.2419754,0.904622352 C79.0545139,1.08898448 78.9088771,1.30407362 78.8047319,1.54987312 C78.7007532,1.79570595 78.6485973,2.0568523 78.6485973,2.33342881 L78.6485973,22.3519662 Z M96.9786648,12.9495645 L82.7080966,12.9495645 L82.7080966,4.315255 L89.8434641,4.315255 C89.9682717,4.315255 90.2337172,4.33580078 90.6396338,4.37670904 C91.0352192,4.40743606 91.4984574,4.49448484 92.0291817,4.63797203 C92.5497414,4.78134258 93.1012948,5.00148069 93.6843416,5.298503 C94.2672219,5.59552531 94.8032784,6.00529113 95.2925113,6.52760049 C95.7817441,7.05000983 96.1876607,7.7055085 96.5102611,8.49409649 C96.8225303,9.2725199 96.9786648,10.2199586 96.9786648,11.3364126 L96.9786648,12.9495645 Z" id="Shape" fill="#01FAC1"></path>
            </g>
        </g>
    </g>
</svg>