<?xml version="1.0" encoding="UTF-8"?>
<svg width="189px" height="219px" viewBox="0 0 189 219" version="1.1" xmlns="http://www.w3.org/2000/svg" xmlns:xlink="http://www.w3.org/1999/xlink">
    <title>resume-image</title>
    <g id="Final" stroke="none" stroke-width="1" fill="none" fill-rule="evenodd">
        <g id="1.3-Metal-India" transform="translate(-927, -502)">
            <g id="Group-7" transform="translate(324, 502)">
                <g id="Group-15" transform="translate(603, 0)">
                    <g id="Group-2" transform="translate(2, 2)">
                        <path d="M116.537824,3.3723859 C116.2796,3.3723859 116.017522,3.41189033 115.759298,3.49668032 L5.11125378,39.5285713 C3.79113147,39.9583023 3.06665883,41.3823887 3.49648626,42.7024147 L53.9984632,197.78523 C54.206584,198.425009 54.6517315,198.945312 55.2510425,199.249785 C55.8503536,199.555221 56.5325276,199.608215 57.1723066,199.399131 L167.821314,163.36724 C168.461093,163.160082 168.980432,162.714935 169.285869,162.11466 C169.590342,161.515349 169.644299,160.833175 169.436178,160.193396 L118.934105,5.11058066 C118.5882,4.04877876 117.598663,3.3723859 116.537824,3.3723859 M56.3860722,202.898645 C55.4707257,202.898645 54.5621239,202.682816 53.7219322,202.255975 C52.3200068,201.542005 51.2794024,200.325076 50.79186,198.829689 L0.289979421,43.7468732 C-0.71564911,40.6587833 0.978705372,37.3278856 4.06679529,36.3219681 L114.715803,0.290077125 C117.804856,-0.715840464 121.13479,0.97899578 122.140708,4.06612217 L172.641818,159.148938 C173.12936,160.645288 173.005066,162.241845 172.291096,163.643771 C171.578089,165.04666 170.36116,166.087264 168.864809,166.574806 L58.2167651,202.606697 C57.6164905,202.802292 56.999836,202.898645 56.3860722,202.898645" id="Fill-62" fill="#000072"></path>
                        <path d="M161.958279,216.45059 C161.727034,216.45059 161.494825,216.437101 161.261652,216.410122 L75.5534271,206.383706 L64.9614232,209.833117 C64.3611487,210.028712 63.7444942,210.125064 63.1316938,210.125064 C62.2153838,210.125064 61.306782,209.909235 60.4665903,209.482395 C59.064665,208.768424 58.023097,207.551495 57.5365181,206.056108 L56.933353,204.205181 L45.6826851,202.889009 C42.4566187,202.511309 40.1391542,199.579309 40.5166623,196.353436 L40.5751481,195.853368 L50.1886948,196.978762 L50.79186,198.829689 C51.2794024,200.325076 52.3200068,201.542005 53.7219322,202.255975 C54.5621239,202.682816 55.4707257,202.898645 56.3860722,202.898645 C56.999836,202.898645 57.6164905,202.802292 58.2167651,202.606697 L68.8097325,199.157286 L154.516994,209.183703 C154.749203,209.210681 154.978522,209.224171 155.205913,209.224171 C158.150438,209.224171 160.701846,207.011923 161.052568,204.017294 L165.296885,167.736815 L168.864809,166.574806 C170.36116,166.087264 171.578089,165.04666 172.291096,163.643771 C173.005066,162.241845 173.12936,160.645288 172.641818,159.148938 L167.977405,144.823284 L179.945319,42.524163 L181.582344,42.715904 C183.145178,42.8980098 184.543249,43.6784631 185.519297,44.9127355 C186.494382,46.1479715 186.931821,47.6876806 186.748752,49.2505142 L174.722063,152.049703 L179.386476,166.375357 C179.874018,167.871708 179.74876,169.467301 179.035754,170.87019 C178.322747,172.273079 177.105818,173.313683 175.610431,173.801226 L172.041543,174.963234 L167.797226,211.243714 C167.614157,212.806548 166.833704,214.204619 165.599431,215.180667 C164.549192,216.011224 163.277342,216.45059 161.958279,216.45059 M33.8437866,190.969271 C33.3191485,190.088612 33.0176623,189.060533 33.0176623,187.963081 L33.0176623,186.627639 L34.0643369,186.627639 L33.7718115,189.127016 C33.6989691,189.750415 33.7245988,190.370924 33.8437866,190.969271 M161.166264,33.8890735 L154.421606,33.0999485 L154.421606,18.9737437 L155.275287,18.9737437 C158.523321,18.9737437 161.166264,21.6166862 161.166264,24.8647209 L161.166264,33.8890735 M129.033749,11.7482878 L124.642013,11.7482878 L123.16975,7.2274398 C123.206364,7.22647628 123.242978,7.22647628 123.279592,7.22647628 C125.76259,7.22647628 128.076007,8.80858038 128.885366,11.2935052 L129.033749,11.7482878" id="Fill-52" fill="#859BCE"></path>
                        <path d="M154.712589,207.5091 L39.1340074,193.987024 C36.8276234,193.717238 35.1767238,191.629284 35.4465101,189.322611 L54.398325,27.3294117 C54.6681114,25.0237021 56.7560648,23.3722244 59.0627379,23.6420107 L174.642091,37.1640868 C176.9478,37.4338731 178.599278,39.5218266 178.329492,41.8284997 L159.377966,203.821699 C159.108179,206.127409 157.019262,207.778887 154.712589,207.5091" id="Fill-53" fill="#FFFFFF"></path>
                        <path d="M154.741495,207.269183 C156.911348,207.526444 158.884642,205.96361 159.138049,203.793757 L178.089575,41.8005575 C178.343945,39.6297411 176.784001,37.6574104 174.613185,37.4030404 L59.0347958,23.8819278 C57.9816656,23.758597 56.9468423,24.0524713 56.1162858,24.7086302 C55.2857293,25.3647891 54.7606095,26.3051872 54.6372786,27.3573538 L35.6857527,189.350554 C35.5627109,190.40272 35.8565853,191.43947 36.5131296,192.269063 C37.1696739,193.09962 38.110361,193.62474 39.1618532,193.748071 L154.741495,207.269183 M155.204949,207.778887 C155.032479,207.778887 154.860008,207.768288 154.685611,207.748054 L39.1058725,194.226941 C37.9267136,194.089158 36.8716563,193.499482 36.1353324,192.568719 C35.3989121,191.636993 35.0693873,190.474021 35.2072674,189.295633 L54.1584079,27.3014695 C54.2971552,26.1221179 54.8858675,25.0670606 55.8175938,24.3309294 C56.7493202,23.5947981 57.9113284,23.268164 59.0906801,23.4030571 L174.670033,36.9241697 C177.103891,37.2093724 178.853648,39.4216202 178.568445,41.8564418 L159.616919,203.849642 C159.351951,206.109102 157.426833,207.778887 155.204949,207.778887" id="Fill-54" fill="#000072"></path>
                        <path d="M155.200132,205.851841 C155.10378,205.851841 155.006464,205.84606 154.909148,205.834498 L76.4803359,196.658872 L107.28608,186.627639 L148.530628,186.627639 C151.778663,186.627639 154.421606,183.984696 154.421606,180.736662 L154.421606,171.27776 L159.435777,169.644589 L155.200132,205.851841 M49.0392124,193.448415 L39.3296988,192.312422 C38.6616886,192.234377 38.0641119,191.900998 37.647003,191.372987 C37.2297977,190.844977 37.043067,190.186891 37.1213051,189.51917 L37.4595978,186.627639 L46.8182928,186.627639 L49.0392124,193.448415 M163.830404,132.088406 L154.421606,103.196217 L154.421606,38.6777808 L170.305276,40.5354524 C172.612912,40.8052387 174.265353,42.8960827 173.995567,45.1989017 L163.830404,132.088406" id="Fill-55" fill="#A6A6CE"></path>
                        <path d="M154.909148,205.834498 C156.289876,205.99926 157.541492,205.003942 157.7024,203.626104 L176.653926,41.6329046 C176.815798,40.2531402 175.825296,38.9995973 174.445532,38.8386891 L58.8661793,25.3175765 C58.1984582,25.2376041 57.5403722,25.4245275 57.0123618,25.8426963 C56.4843515,26.2599016 56.1509726,26.8572856 56.0729273,27.5250068 L37.1213051,189.51917 C37.043067,190.186891 37.2297977,190.844977 37.647003,191.372987 C38.0641119,191.900998 38.6616886,192.234377 39.3296988,192.312422 L154.909148,205.834498 M155.205913,209.224171 C154.978522,209.224171 154.749203,209.210681 154.516994,209.183703 L38.9379305,195.66259 C37.3752896,195.479521 35.9772183,194.699067 35.001459,193.464795 C34.0256997,192.230523 33.5891276,190.68985 33.7718115,189.127016 L52.7237228,27.1338166 C52.9058285,25.570983 53.6862818,24.1729117 54.9205543,23.1968633 C56.1557903,22.2217784 57.6964629,21.7833756 59.258333,21.9674084 L174.837686,35.488521 C178.063559,35.8662219 180.380831,38.7982211 180.004094,42.0240948 L161.052568,204.017294 C160.701846,207.011923 158.150438,209.224171 155.205913,209.224171" id="Fill-56" fill="#000072"></path>
                        <path d="M168.344507,164.969578 L160.096754,167.657806 L57.6935723,201.005323 C55.4871056,201.723147 53.1120224,200.513926 52.394198,198.30746 L1.89096856,43.2236804 C1.17314423,41.0172137 2.38236509,38.6421305 4.58883183,37.9243061 L35.3204813,27.918124 L55.8821498,21.221642 L115.239959,1.89337872 C117.446426,1.17555439 119.816692,2.37995763 120.539334,4.59124199 L171.037553,159.670204 C171.760195,161.880524 170.550974,164.251753 168.344507,164.969578" id="Fill-57" fill="#FFFFFF"></path>
                        <path d="M116.535897,1.92806553 C116.130254,1.92806553 115.719794,1.9906945 115.31415,2.12173358 L4.66350483,38.152661 C2.58480118,38.8290538 1.44399043,41.0702074 2.12009424,43.1485256 L52.6235164,198.232305 C52.9501506,199.238222 53.6506315,200.057217 54.5948836,200.538014 C55.5391358,201.017849 56.6134635,201.103602 57.6184175,200.776004 L168.269352,164.740259 C169.277197,164.411698 170.096191,163.712181 170.576025,162.767929 C171.054896,161.825604 171.137759,160.751276 170.808234,159.744395 L120.310015,4.66543323 C119.763698,2.992758 118.204718,1.92806553 116.535897,1.92806553 M56.3899262,201.454324 C55.698117,201.454324 55.0111254,201.290526 54.376164,200.966782 C53.3172527,200.428173 52.5319818,199.509936 52.1648797,198.381651 L1.6620356,43.2978716 C0.903646962,40.9671105 2.18320497,38.45328 4.51435153,37.6949878 L115.164804,1.66406034 C117.492675,0.906731585 120.006506,2.18628959 120.767688,4.51608722 L171.266871,159.595049 C171.6359,160.724297 171.542439,161.9287 171.004793,162.986648 C170.467147,164.04556 169.54891,164.830831 168.418698,165.197933 L57.7677636,201.233678 C57.3158715,201.381097 56.8524171,201.454324 56.3899262,201.454324" id="Fill-58" stroke="#000072" stroke-width="5" fill="#000072"></path>
                        <path d="M148.530628,184.940511 L32.1635959,184.940511 C29.8415064,184.940511 27.9590724,183.058751 27.9590724,180.736662 L27.9590724,17.6383014 C27.9590724,15.316212 29.8415064,13.4334888 32.1635959,13.4334888 L148.530628,13.4334888 C150.852718,13.4334888 152.735441,15.316212 152.735441,17.6383014 L152.735441,180.736662 C152.735441,183.058751 150.852718,184.940511 148.530628,184.940511" id="Fill-63" fill="#FFFFFF"></path>
                        <path d="M32.1635959,13.675333 C29.9780376,13.675333 28.2000494,15.4530322 28.2000494,17.6383014 L28.2000494,180.736662 C28.2000494,182.921931 29.9780376,184.700593 32.1635959,184.700593 L148.530628,184.700593 C150.716861,184.700593 152.49456,182.921931 152.49456,180.736662 L152.49456,17.6383014 C152.49456,15.4530322 150.716861,13.675333 148.530628,13.675333 L32.1635959,13.675333 M148.530628,185.182355 L32.1635959,185.182355 C29.7123944,185.182355 27.7182881,183.187863 27.7182881,180.736662 L27.7182881,17.6383014 C27.7182881,15.1871 29.7123944,13.1935717 32.1635959,13.1935717 L148.530628,13.1935717 C150.98183,13.1935717 152.976322,15.1871 152.976322,17.6383014 L152.976322,180.736662 C152.976322,183.187863 150.98183,185.182355 148.530628,185.182355" id="Fill-64" fill="#000072"></path>
                        <path d="M32.1635959,15.1206169 C30.7749671,15.1206169 29.6453332,16.2498654 29.6453332,17.6383014 L29.6453332,180.736662 C29.6453332,182.125098 30.7749671,183.25531 32.1635959,183.25531 L148.530628,183.25531 C149.919064,183.25531 151.049276,182.125098 151.049276,180.736662 L151.049276,17.6383014 C151.049276,16.2498654 149.919064,15.1206169 148.530628,15.1206169 L32.1635959,15.1206169 M148.530628,186.627639 L32.1635959,186.627639 C28.9155612,186.627639 26.2731005,183.984696 26.2731005,180.736662 L26.2731005,17.6383014 C26.2731005,14.3902668 28.9155612,11.7482878 32.1635959,11.7482878 L148.530628,11.7482878 C151.778663,11.7482878 154.421606,14.3902668 154.421606,17.6383014 L154.421606,180.736662 C154.421606,183.984696 151.778663,186.627639 148.530628,186.627639" id="Fill-65" fill="#000072"></path>
                        <path d="M90.347353,62.952769 C83.606549,62.952769 78.1424123,57.4886324 78.1424123,50.7487919 C78.1424123,44.0079878 83.606549,38.5438512 90.347353,38.5438512 C97.0871936,38.5438512 102.552294,44.0079878 102.552294,50.7487919 C102.552294,57.4886324 97.0871936,62.952769 90.347353,62.952769" id="Fill-66" fill="#B2B2D4"></path>
                        <path d="M110.436799,84.953844 L70.2569434,84.953844 C68.1969321,84.953844 66.7294872,82.9882579 67.2690599,80.9995472 C69.5583895,72.565834 79.0221085,66.2470528 90.347353,66.2470528 C101.672598,66.2470528 111.135353,72.565834 113.425646,80.9995472 C113.965219,82.9882579 112.497774,84.953844 110.436799,84.953844" id="Fill-67" fill="#B2B2D4"></path>
                        <path d="M110.531224,98.7987001 L84.0873467,98.7987001 C83.1565839,98.7987001 82.4011822,98.0432984 82.4011822,97.1125356 C82.4011822,96.1808092 83.1565839,95.426371 84.0873467,95.426371 L110.531224,95.426371 C111.461987,95.426371 112.217389,96.1808092 112.217389,97.1125356 C112.217389,98.0432984 111.461987,98.7987001 110.531224,98.7987001" id="Fill-69" fill="#B5B5D6"></path>
                        <path d="M104.58629,107.596625 L78.1424123,107.596625 C77.2116495,107.596625 76.4562478,106.841223 76.4562478,105.91046 C76.4562478,104.978734 77.2116495,104.224296 78.1424123,104.224296 L104.58629,104.224296 C105.517053,104.224296 106.272454,104.978734 106.272454,105.91046 C106.272454,106.841223 105.517053,107.596625 104.58629,107.596625" id="Fill-70" fill="#B5B5D6"></path>
                        <path d="M75.6536335,98.7987001 L53.2517332,98.7987001 C52.3200068,98.7987001 51.5655686,98.0432984 51.5655686,97.1125356 C51.5655686,96.1808092 52.3200068,95.426371 53.2517332,95.426371 L75.6536335,95.426371 C76.5843963,95.426371 77.339798,96.1808092 77.339798,97.1125356 C77.339798,98.0432984 76.5843963,98.7987001 75.6536335,98.7987001" id="Fill-76" fill="#B5B5D6"></path>
                        <path d="M144.747839,180.824342 L29.6468749,180.824342 C29.6453332,180.794473 29.6453332,180.765567 29.6453332,180.736662 L29.6453332,180.667288 C47.1921396,179.855038 62.9572962,176.289041 76.9033223,169.984713 L90.8965609,169.984713 C91.8273237,169.984713 92.5827254,169.229311 92.5827254,168.298548 C92.5827254,167.366822 91.8273237,166.612384 90.8965609,166.612384 L83.7096459,166.612384 C117.148698,148.526101 139.068837,113.253466 148.722369,61.0584836 L148.722369,176.849811 C148.722369,179.041825 146.939853,180.824342 144.747839,180.824342" id="Fill-80" fill="#CCCCE3"></path>
                        <path d="M78.3987093,192.487783 L55.4986678,192.487783 L53.5899296,186.627639 L96.3944208,186.627639 L78.3987093,192.487783 M154.421606,167.731034 L154.421606,114.086913 L159.855873,130.775124 L159.855873,165.961043 L154.421606,167.731034" id="Fill-59" fill="#B3B6CB"></path>
                        <polyline id="Fill-60" fill="#A6A6CE" points="76.9187386 192.969544 55.1479456 192.969544 54.7808435 191.839332 53.0840802 186.627639 53.5899296 186.627639 55.4986678 192.487783 78.3987093 192.487783 76.9187386 192.969544"></polyline>
                        <polyline id="Fill-61" fill="#A6A6CE" points="159.855873 165.961043 159.855873 130.775124 160.337634 132.254132 160.337634 165.804952 159.855873 165.961043"></polyline>
                        <path d="M123.561904,98.7987001 L117.486894,98.7987001 C116.555168,98.7987001 115.799766,98.0432984 115.799766,97.1125356 C115.799766,96.1808092 116.555168,95.426371 117.486894,95.426371 L123.561904,95.426371 C124.492667,95.426371 125.248068,96.1808092 125.248068,97.1125356 C125.248068,98.0432984 124.492667,98.7987001 123.561904,98.7987001" id="Fill-68" fill="#B5B5D6"></path>
                        <path d="M90.8965609,128.673682 L64.4526833,128.673682 C63.520957,128.673682 62.7665188,127.91828 62.7665188,126.987517 C62.7665188,126.055791 63.520957,125.301353 64.4526833,125.301353 L90.8965609,125.301353 C91.8273237,125.301353 92.5827254,126.055791 92.5827254,126.987517 C92.5827254,127.91828 91.8273237,128.673682 90.8965609,128.673682" id="Fill-71" fill="#B5B5D6"></path>
                        <path d="M78.7850819,122.410785 L64.4526833,122.410785 C63.520957,122.410785 62.7665188,121.655383 62.7665188,120.72462 C62.7665188,119.792894 63.520957,119.038456 64.4526833,119.038456 L78.7850819,119.038456 C79.7168082,119.038456 80.4712464,119.792894 80.4712464,120.72462 C80.4712464,121.655383 79.7168082,122.410785 78.7850819,122.410785" id="Fill-72" fill="#B5B5D6"></path>
                        <path d="M80.5916868,143.929135 L64.4526833,143.929135 C63.520957,143.929135 62.7665188,143.173733 62.7665188,142.24297 C62.7665188,141.312208 63.520957,140.556806 64.4526833,140.556806 L80.5916868,140.556806 C81.5224496,140.556806 82.2778513,141.312208 82.2778513,142.24297 C82.2778513,143.173733 81.5224496,143.929135 80.5916868,143.929135" id="Fill-73" fill="#B5B5D6"></path>
                        <path d="M103.354908,149.750738 L64.4526833,149.750738 C63.520957,149.750738 62.7665188,148.995337 62.7665188,148.064574 C62.7665188,147.132848 63.520957,146.378409 64.4526833,146.378409 L103.354908,146.378409 C104.285671,146.378409 105.041073,147.132848 105.041073,148.064574 C105.041073,148.995337 104.285671,149.750738 103.354908,149.750738" id="Fill-74" fill="#B5B5D6"></path>
                        <path d="M76.9033223,169.984713 L64.4526833,169.984713 C63.520957,169.984713 62.7665188,169.229311 62.7665188,168.298548 C62.7665188,167.366822 63.520957,166.612384 64.4526833,166.612384 L83.7096459,166.612384 C81.4925804,167.811006 79.2215576,168.9364 76.9033223,169.984713" id="Fill-75" fill="#B5B5D6"></path>
                        <path d="M48.7424474,128.126401 L40.6026085,128.126401 C39.384716,128.126401 38.3972017,127.13879 38.3972017,125.920898 L38.3972017,117.781059 C38.3972017,116.563166 39.384716,115.575556 40.6026085,115.575556 L48.7424474,115.575556 C49.96034,115.575556 50.9479506,116.563166 50.9479506,117.781059 L50.9479506,125.920898 C50.9479506,127.13879 49.96034,128.126401 48.7424474,128.126401" id="Fill-77" fill="#B2B2D4"></path>
                        <path d="M48.7424474,149.003045 L40.6026085,149.003045 C39.384716,149.003045 38.3972017,148.015434 38.3972017,146.797542 L38.3972017,138.657703 C38.3972017,137.43981 39.384716,136.4522 40.6026085,136.4522 L48.7424474,136.4522 C49.96034,136.4522 50.9479506,137.43981 50.9479506,138.657703 L50.9479506,146.797542 C50.9479506,148.015434 49.96034,149.003045 48.7424474,149.003045" id="Fill-78" fill="#B2B2D4"></path>
                        <path d="M48.7424474,169.878725 L40.6026085,169.878725 C39.384716,169.878725 38.3972017,168.892078 38.3972017,167.673222 L38.3972017,159.533383 C38.3972017,158.315491 39.384716,157.32788 40.6026085,157.32788 L48.7424474,157.32788 C49.96034,157.32788 50.9479506,158.315491 50.9479506,159.533383 L50.9479506,167.673222 C50.9479506,168.892078 49.96034,169.878725 48.7424474,169.878725" id="Fill-79" fill="#B2B2D4"></path>
                    </g>
                </g>
            </g>
        </g>
    </g>
</svg>